<svg xmlns="http://www.w3.org/2000/svg" width="48" height="48" viewBox="0 0 48 48">
  <!-- Shadow -->
  <ellipse cx="24" cy="27" rx="20" ry="19" fill="rgba(0,0,0,0.08)"/>
  <!-- Egg white -->
  <path d="M24 4C15 4 4 10 4 22c0 8 4 18 8 22 3 3 7 4 12 3 5 1 9 0 12-3 4-4 8-14 8-22 0-12-11-18-20-18z" fill="#fff" stroke="#f0e6d3" stroke-width="0.5"/>
  <!-- Egg white detail - slightly irregular edge bumps -->
  <path d="M6 22q-1-3 0-6" stroke="#f5efe6" stroke-width="1.5" fill="none" opacity="0.5"/>
  <path d="M42 22q1-3 0-6" stroke="#f5efe6" stroke-width="1.5" fill="none" opacity="0.5"/>
  <!-- Yolk -->
  <circle cx="24" cy="22" r="9" fill="#ffb800"/>
  <!-- Yolk highlight -->
  <ellipse cx="22" cy="19" rx="3.5" ry="2.5" fill="#ffd54f" opacity="0.7"/>
  <ellipse cx="21" cy="18.5" rx="1.5" ry="1" fill="#ffe082" opacity="0.6"/>
</svg>
